<svg width="32" height="32" viewBox="0 0 32 32" fill="none" xmlns="http://www.w3.org/2000/svg">
<rect width="32" height="32" rx="2.13333" fill="url(#paint0_linear_150_5)"/>
<path d="M19.9194 11.9375C19.8311 11.1105 19.4586 10.4665 18.802 10.0057C18.1518 9.54482 17.3058 9.31439 16.2641 9.31439C15.5318 9.31439 14.9037 9.42487 14.3797 9.64583C13.8557 9.86679 13.4548 10.1667 13.177 10.5455C12.8992 10.9242 12.7572 11.3567 12.7509 11.8428C12.7509 12.2468 12.8424 12.5972 13.0255 12.8939C13.2149 13.1907 13.4706 13.4432 13.7926 13.6515C14.1145 13.8535 14.4712 14.024 14.8626 14.1629C15.254 14.3018 15.6486 14.4186 16.0463 14.5133L17.8645 14.9678C18.5968 15.1383 19.3008 15.3687 19.9763 15.6591C20.6581 15.9495 21.2673 16.3157 21.8039 16.7576C22.3468 17.1995 22.7761 17.733 23.0918 18.358C23.4075 18.983 23.5653 19.7153 23.5653 20.5549C23.5653 21.6913 23.2749 22.6919 22.6941 23.5568C22.1133 24.4154 21.2736 25.0878 20.1751 25.5739C19.083 26.0537 17.7604 26.2936 16.2073 26.2936C14.6985 26.2936 13.3885 26.06 12.2774 25.5928C11.1726 25.1256 10.3077 24.4438 9.68271 23.5473C9.06402 22.6509 8.72942 21.5587 8.67892 20.2708H12.1354C12.1859 20.9463 12.3942 21.5082 12.7604 21.9564C13.1265 22.4047 13.6032 22.7393 14.1903 22.9602C14.7837 23.1812 15.4466 23.2917 16.1789 23.2917C16.9428 23.2917 17.612 23.178 18.1865 22.9508C18.7673 22.7172 19.2218 22.3952 19.5501 21.9848C19.8784 21.5682 20.0457 21.0821 20.052 20.5265C20.0457 20.0215 19.8974 19.6048 19.6069 19.2765C19.3165 18.9419 18.9093 18.6641 18.3854 18.4432C17.8677 18.2159 17.2616 18.0139 16.5672 17.8371L14.3607 17.2689C12.7635 16.8586 11.5009 16.2367 10.5729 15.4034C9.65114 14.5638 9.19028 13.4495 9.19028 12.0606C9.19028 10.9179 9.49963 9.9173 10.1183 9.05871C10.7433 8.20013 11.5924 7.53409 12.6657 7.0606C13.7389 6.58081 14.9542 6.34091 16.3115 6.34091C17.6878 6.34091 18.8936 6.58081 19.9289 7.0606C20.9706 7.53409 21.7881 8.19381 22.3816 9.03977C22.975 9.87942 23.2812 10.8453 23.3001 11.9375H19.9194Z" fill="url(#paint1_linear_150_5)"/>
<defs>
<linearGradient id="paint0_linear_150_5" x1="0" y1="0" x2="32" y2="32" gradientUnits="userSpaceOnUse">
<stop stop-color="#0C4A6E"/>
<stop offset="1" stop-color="#1E293B"/>
</linearGradient>
<linearGradient id="paint1_linear_150_5" x1="16.4668" y1="0" x2="16.4668" y2="32" gradientUnits="userSpaceOnUse">
<stop stop-color="#0EA5E9"/>
<stop offset="0.9999" stop-color="#67E8F9"/>
</linearGradient>
</defs>
</svg>
