<svg width="468" height="76" viewBox="0 0 468 76" fill="none" xmlns="http://www.w3.org/2000/svg">
<path d="M42.6974 21.2656C42.366 18.1643 40.9692 15.7495 38.5071 14.0213C36.0687 12.2931 32.8963 11.429 28.9901 11.429C26.2438 11.429 23.8883 11.8433 21.9233 12.6719C19.9583 13.5005 18.455 14.625 17.4134 16.0455C16.3717 17.4659 15.839 19.0876 15.8153 20.9105C15.8153 22.4257 16.1586 23.7396 16.8452 24.8523C17.5554 25.965 18.5142 26.9119 19.7216 27.6932C20.929 28.4508 22.2666 29.09 23.7344 29.6108C25.2022 30.1316 26.6818 30.5696 28.1733 30.9247L34.9915 32.6293C37.7377 33.2685 40.3774 34.1326 42.9105 35.2216C45.4673 36.3106 47.7519 37.6837 49.7642 39.3409C51.8002 40.9981 53.41 42.9986 54.5938 45.3423C55.7775 47.6861 56.3693 50.4323 56.3693 53.581C56.3693 57.8423 55.2803 61.5947 53.1023 64.8381C50.9242 68.0578 47.7756 70.5791 43.6562 72.402C39.5606 74.2012 34.6009 75.1009 28.777 75.1009C23.1188 75.1009 18.2064 74.2249 14.0398 72.473C9.89678 70.7211 6.65341 68.1643 4.30966 64.8026C1.98958 61.4408 0.734849 57.3452 0.545455 52.5156H13.5071C13.6965 55.0488 14.4777 57.1558 15.8509 58.8366C17.224 60.5175 19.0114 61.7723 21.2131 62.6009C23.4384 63.4295 25.9242 63.8438 28.6705 63.8438C31.535 63.8438 34.0445 63.4176 36.1989 62.5653C38.3769 61.6894 40.0814 60.482 41.3125 58.9432C42.5436 57.3807 43.1709 55.5578 43.1946 53.4744C43.1709 51.5805 42.6146 50.018 41.5256 48.7869C40.4366 47.5322 38.9096 46.4905 36.9446 45.6619C35.0033 44.8097 32.7306 44.0521 30.1264 43.3892L21.8523 41.2585C15.8627 39.7197 11.1278 37.3878 7.64773 34.2628C4.19129 31.1141 2.46307 26.9356 2.46307 21.7273C2.46307 17.4422 3.62311 13.6899 5.94318 10.4702C8.28693 7.25047 11.4711 4.75284 15.4957 2.97727C19.5204 1.17803 24.0777 0.278406 29.1676 0.278406C34.3286 0.278406 38.8504 1.17803 42.733 2.97727C46.6392 4.75284 49.705 7.2268 51.9304 10.3991C54.1558 13.5478 55.304 17.17 55.375 21.2656H42.6974ZM68.1147 74V1.27273H81.2894V32.0611H114.99V1.27273H128.2V74H114.99V43.1051H81.2894V74H68.1147ZM155.703 1.27273V74H142.529V1.27273H155.703ZM169.97 1.27273H186.092L207.683 53.9716H208.536L230.126 1.27273H246.249V74H233.607V24.0355H232.932L212.832 73.7869H203.386L183.287 23.929H182.612V74H169.97V1.27273ZM260.595 1.27273H276.717L298.308 53.9716H299.161L320.751 1.27273H336.874V74H324.232V24.0355H323.557L303.457 73.7869H294.011L273.912 23.929H273.237V74H260.595V1.27273ZM351.22 74V1.27273H398.521V12.3168H364.395V32.0611H396.071V43.1051H364.395V62.956H398.805V74H351.22ZM411.962 74V1.27273H439.235C444.822 1.27273 449.51 2.24337 453.298 4.18466C457.109 6.12594 459.986 8.84848 461.927 12.3523C463.892 15.8324 464.874 19.8925 464.874 24.5327C464.874 29.1965 463.88 33.2448 461.891 36.6776C459.926 40.0866 457.026 42.7263 453.191 44.5966C449.356 46.4432 444.645 47.3665 439.058 47.3665H419.633V36.429H437.282C440.549 36.429 443.224 35.9792 445.308 35.0795C447.391 34.1562 448.93 32.8187 449.924 31.0668C450.942 29.2912 451.451 27.1132 451.451 24.5327C451.451 21.9522 450.942 19.7505 449.924 17.9276C448.906 16.081 447.355 14.6842 445.272 13.7372C443.189 12.7666 440.502 12.2812 437.211 12.2812H425.137V74H411.962ZM449.533 41.0455L467.538 74H452.836L435.151 41.0455H449.533Z" fill="url(#paint0_linear_25_69)"/>
<defs>
<linearGradient id="paint0_linear_25_69" x1="233" y1="-23" x2="233" y2="98" gradientUnits="userSpaceOnUse">
<stop stop-color="#0EA5E9"/>
<stop offset="0.9999" stop-color="#67E8F9"/>
</linearGradient>
</defs>
</svg>
